<mxfile host="app.diagrams.net" agent="Mozilla/5.0 (Windows NT 10.0; Win64; x64) AppleWebKit/537.36 (KHTML, like Gecko) Chrome/131.0.0.0 Safari/537.36" version="24.8.9">
  <diagram name="Page-1" id="ISY0e0lObf91r2vspurc">
    <mxGraphModel dx="637" dy="378" grid="1" gridSize="10" guides="1" tooltips="1" connect="1" arrows="1" fold="1" page="1" pageScale="1" pageWidth="850" pageHeight="1100" math="0" shadow="0">
      <root>
        <mxCell id="0" />
        <mxCell id="1" parent="0" />
        <mxCell id="t5MM9dngeRle_1Yj44Ml-3" value="" style="edgeStyle=orthogonalEdgeStyle;rounded=0;orthogonalLoop=1;jettySize=auto;html=1;" edge="1" parent="1" source="t5MM9dngeRle_1Yj44Ml-1" target="t5MM9dngeRle_1Yj44Ml-2">
          <mxGeometry relative="1" as="geometry" />
        </mxCell>
        <mxCell id="t5MM9dngeRle_1Yj44Ml-1" value="START" style="rounded=1;whiteSpace=wrap;html=1;arcSize=50;" vertex="1" parent="1">
          <mxGeometry x="396" y="40" width="90" height="40" as="geometry" />
        </mxCell>
        <mxCell id="t5MM9dngeRle_1Yj44Ml-5" value="" style="edgeStyle=orthogonalEdgeStyle;rounded=0;orthogonalLoop=1;jettySize=auto;html=1;" edge="1" parent="1" source="t5MM9dngeRle_1Yj44Ml-2" target="t5MM9dngeRle_1Yj44Ml-4">
          <mxGeometry relative="1" as="geometry" />
        </mxCell>
        <mxCell id="t5MM9dngeRle_1Yj44Ml-2" value="a = 10, b = 20, c = &quot;HaHa&quot;, d = &#39;a&#39;" style="whiteSpace=wrap;html=1;rounded=1;arcSize=0;" vertex="1" parent="1">
          <mxGeometry x="340.5" y="120" width="201" height="30" as="geometry" />
        </mxCell>
        <mxCell id="t5MM9dngeRle_1Yj44Ml-7" value="" style="edgeStyle=orthogonalEdgeStyle;rounded=0;orthogonalLoop=1;jettySize=auto;html=1;" edge="1" parent="1" source="t5MM9dngeRle_1Yj44Ml-4" target="t5MM9dngeRle_1Yj44Ml-6">
          <mxGeometry relative="1" as="geometry" />
        </mxCell>
        <mxCell id="t5MM9dngeRle_1Yj44Ml-4" value="&quot;10 20.0 Haha a&quot;" style="shape=parallelogram;perimeter=parallelogramPerimeter;whiteSpace=wrap;html=1;fixedSize=1;rounded=1;arcSize=0;" vertex="1" parent="1">
          <mxGeometry x="371.5" y="190" width="139" height="25" as="geometry" />
        </mxCell>
        <mxCell id="t5MM9dngeRle_1Yj44Ml-6" value="END" style="rounded=1;whiteSpace=wrap;html=1;arcSize=50;" vertex="1" parent="1">
          <mxGeometry x="396" y="250" width="90" height="40" as="geometry" />
        </mxCell>
      </root>
    </mxGraphModel>
  </diagram>
</mxfile>
